<?xml version="1.0" encoding="UTF-8"?>
<!-- Generator: Adobe Illustrator 24.0.1, SVG Export Plug-In . SVG Version: 6.00 Build 0)  -->
<svg version="1.1" id="Group_2" xmlns="http://www.w3.org/2000/svg" xmlns:xlink="http://www.w3.org/1999/xlink" x="0px" y="0px" viewBox="0 0 146.5 48.2" style="enable-background:new 0 0 146.5 48.2;" xml:space="preserve">
<style type="text/css">
	.st0{fill:url(#Path_1_1_);}
	.st1{fill:url(#Path_2_1_);}
	.st2{fill:url(#Path_3_1_);}
	.st3{fill:url(#Path_4_1_);}
	.st4{fill:url(#Path_5_1_);}
	.st5{enable-background:new    ;}
	.st6{fill:#747473;}
</style>
<linearGradient id="Path_1_1_" gradientUnits="userSpaceOnUse" x1="-265.3946" y1="314.7088" x2="-265.3946" y2="313.6848" gradientTransform="matrix(4.2784 0 0 -36.015 1252.4681 11333.7676)">
	<stop offset="0" style="stop-color:#F26A2F"/>
	<stop offset="1" style="stop-color:#E50D40"/>
</linearGradient>
<path id="Path_1" class="st0" d="M114.9,34.9V1.1c0-0.6,0.5-1.1,1.1-1.1c0,0,0,0,0,0h2.1c0.6,0,1.1,0.5,1.1,1.1c0,0,0,0,0,0v33.7  c0,0.6-0.5,1.1-1.1,1.1c0,0,0,0,0,0H116C115.3,36,114.9,35.5,114.9,34.9C114.9,34.9,114.9,34.9,114.9,34.9L114.9,34.9z"/>
<linearGradient id="Path_2_1_" gradientUnits="userSpaceOnUse" x1="-332.3359" y1="312.3131" x2="-332.9479" y2="311.5411" gradientTransform="matrix(25.0984 0 0 -27.6057 8483.5811 8632.5146)">
	<stop offset="0" style="stop-color:#F26A2F"/>
	<stop offset="1" style="stop-color:#E50D40"/>
</linearGradient>
<path id="Path_2" class="st1" d="M133.9,36.5c-3.4,0.1-6.7-1.3-9-3.8c-2.3-2.5-3.5-5.9-3.5-10c0-4.2,1.2-7.5,3.5-10  c5-5,13-5,18.2-0.2c2.3,2.5,3.5,5.8,3.4,9.1c0,0.5,0,1.1-0.1,1.6c0,0.6-0.5,1.1-1.1,1.1h-18.3c-0.6,0-1.1,0.5-1.1,1.2  c0,0.1,0,0.1,0,0.2c0.2,1.9,1,3.6,2.3,5c1.5,1.5,3.6,2.4,5.7,2.3c1.6,0.1,3.1-0.4,4.4-1.2c1-0.7,1.8-1.6,2.4-2.6  c0.2-0.4,0.6-0.6,1-0.6h2.2c0.6,0,1.1,0.5,1.1,1.2c0,0.2,0,0.3-0.1,0.5c-0.8,1.6-2,3-3.5,4.1C139.3,35.7,136.6,36.6,133.9,36.5z   M139.7,14.8c-3.2-3.1-8.2-3.1-11.4,0c-1.3,1.3-2.1,3-2.3,4.9c-0.1,0.6,0.3,1.2,0.9,1.3c0.1,0,0.1,0,0.2,0h13.7  c0.6,0,1.1-0.5,1.1-1.2c0,0,0-0.1,0-0.1C141.8,17.8,141,16.1,139.7,14.8L139.7,14.8z"/>
<g id="Group_1" transform="translate(0 9.2)">
	
		<linearGradient id="Path_3_1_" gradientUnits="userSpaceOnUse" x1="-326.6614" y1="302.8542" x2="-327.4974" y2="302.0942" gradientTransform="matrix(17.9484 0 0 -26.814 5881.0864 8121.8223)">
		<stop offset="0" style="stop-color:#F26A2F"/>
		<stop offset="1" style="stop-color:#E50D40"/>
	</linearGradient>
	<path id="Path_3" class="st2" d="M17.9,1.3v2.8c0,0.3-0.1,0.5-0.2,0.7L7.6,20.2c-0.4,0.6-0.3,1.4,0.3,1.8c0.2,0.1,0.4,0.2,0.7,0.2   h8.1c0.7,0,1.3,0.6,1.3,1.3v1.9c0,0.7-0.6,1.3-1.3,1.3H1.3c-0.7,0-1.3-0.6-1.3-1.3v-2.8c0-0.3,0.1-0.5,0.2-0.7L10.4,6.6   c0.4-0.6,0.3-1.4-0.3-1.8C9.9,4.6,9.6,4.5,9.4,4.5H1.3C0.6,4.5,0,3.9,0,3.2V1.3C0,0.6,0.6,0,1.3,0h15.4C17.4,0,18,0.6,17.9,1.3z"/>
</g>
<linearGradient id="Path_4_1_" gradientUnits="userSpaceOnUse" x1="-340.4771" y1="312.6617" x2="-341.3011" y2="312.6617" gradientTransform="matrix(62.9774 0 0 -29.9527 21526.1211 9387.5244)">
	<stop offset="0" style="stop-color:#F26A2F"/>
	<stop offset="1" style="stop-color:#E50D40"/>
</linearGradient>
<path id="Path_4" class="st3" d="M46.1,24.3l3,3.3c-4.7,8-12.5,11.5-19.7,9c-6.1-2.1-10-8.7-9.4-15.9c0.7-6.5,5.6-11.7,12-12.9  c5.2-0.8,9.4,1,13,4.7c5.4,5.7,10.9,11.5,16.4,17.2c3.5,3.9,9.5,4.2,13.5,0.7c0.4-0.3,0.7-0.7,1-1.1c3.7-4.3,3.3-10.7-0.8-14.6  c-3.8-3.6-9.7-3.4-13.3,0.3c-1.7,1.7-3.1,3.6-4.9,5.7l-3.6-3.9c2.9-2.6,5.4-5.3,8.3-7.2c6.2-4.1,14.8-1.9,18.9,4.6  s2.7,15.7-3.3,20.2C71,39,63.4,38.3,58,32.6C52.5,26.8,47,21,41.4,15.3c-3.6-3.9-9.7-4.2-13.6-0.6c-0.3,0.3-0.6,0.6-0.9,0.9  c-3.6,4.3-3.2,10.7,0.8,14.6c3.8,3.6,9.9,3.4,13.5-0.4c0.1-0.1,0.1-0.2,0.2-0.2C43,28,44.4,26.3,46.1,24.3z"/>
<linearGradient id="Path_5_1_" gradientUnits="userSpaceOnUse" x1="-333.3068" y1="315.3083" x2="-334.0988" y2="314.4093" gradientTransform="matrix(26.6831 0 0 -39.3319 8997.8936 12411.5918)">
	<stop offset="0" style="stop-color:#F26A2F"/>
	<stop offset="1" style="stop-color:#E50D40"/>
</linearGradient>
<path id="Path_5" class="st4" d="M109.1,12.6c-3.9-4.1-10-4.9-14.9-2.2c-1,0.6-1.9,1.4-2.8,2.3c-0.3,0.3-0.8,0.3-1.1,0  c-0.2-0.2-0.3-0.4-0.3-0.6V9.9c0-0.4-0.3-0.8-0.8-0.8c0,0,0,0,0,0h-2.6c-0.4,0-0.8,0.4-0.8,0.8c0,0,0,0,0,0v37.5  c0,0.4,0.3,0.8,0.8,0.8c0,0,0,0,0,0h2.6c0.4,0,0.8-0.4,0.8-0.8c0,0,0,0,0,0V33.1c0-0.4,0.3-0.8,0.7-0.8c0.2,0,0.5,0.1,0.6,0.3  c0.8,0.9,1.8,1.6,2.8,2.3c1.8,1.1,3.8,1.7,5.9,1.6c3.4,0.1,6.6-1.4,8.9-3.9c2.4-2.8,3.7-6.3,3.6-10  C112.5,18.4,111.4,15.1,109.1,12.6z M106.3,29.9c-9.6,6.8-20-4-13.5-13.9c0.3-0.4,0.6-0.8,1-1.1c9.6-6.8,20,4,13.5,13.9  C107.1,29.2,106.7,29.6,106.3,29.9z"/>
<g class="st5">
	<path class="st6" d="M0.2,41.5H3v0.4H1.9v3.7H1.4v-3.7H0.2V41.5z"/>
	<path class="st6" d="M7.5,41.9H5.8v1.4h1.5v0.5H5.8v1.4h1.7v0.5H5.3v-4.2h2.2V41.9z"/>
	<path class="st6" d="M11.8,41.4c0.9,0,1.6,0.5,1.9,1.3h-0.7c-0.2-0.5-0.7-0.8-1.3-0.8c-0.9,0-1.5,0.6-1.5,1.7c0,1,0.7,1.7,1.5,1.7   c0.6,0,1.1-0.3,1.3-0.8h0.7c-0.3,0.8-1,1.3-1.9,1.3c-1.2,0-2.1-0.9-2.1-2.1S10.6,41.4,11.8,41.4z"/>
	<path class="st6" d="M18.8,43.8h-2.1v1.9h-0.5v-4.2h0.5v1.8h2.1v-1.8h0.5v4.2h-0.5V43.8z"/>
	<path class="st6" d="M25.1,41.5v4.2h-0.5l-2.2-3.3v3.3h-0.5v-4.2h0.5l2.2,3.3v-3.3H25.1z"/>
	<path class="st6" d="M29.5,45.7c-1.2,0-2.1-0.9-2.1-2.1s0.9-2.1,2.1-2.1c1.2,0,2.1,0.9,2.1,2.1S30.7,45.7,29.5,45.7z M29.5,45.2   c0.9,0,1.5-0.6,1.5-1.7c0-1-0.7-1.7-1.5-1.7c-0.9,0-1.5,0.6-1.5,1.7C27.9,44.6,28.6,45.2,29.5,45.2z"/>
	<path class="st6" d="M34.4,41.5v3.7h1.5v0.4h-2v-4.2H34.4z"/>
	<path class="st6" d="M39.9,45.7c-1.2,0-2.1-0.9-2.1-2.1s0.9-2.1,2.1-2.1c1.2,0,2.1,0.9,2.1,2.1S41.1,45.7,39.9,45.7z M39.9,45.2   c0.9,0,1.5-0.6,1.5-1.7c0-1-0.7-1.7-1.5-1.7c-0.9,0-1.5,0.6-1.5,1.7C38.4,44.6,39,45.2,39.9,45.2z"/>
	<path class="st6" d="M48.1,42.7h-0.7c-0.2-0.5-0.7-0.8-1.3-0.8c-0.9,0-1.5,0.6-1.5,1.6c0,1,0.7,1.6,1.5,1.6c0.8,0,1.4-0.5,1.5-1.4   H46v-0.4h2.2v0.4c-0.1,1-0.9,1.9-2.1,1.9c-1.2,0-2.1-0.9-2.1-2.1s0.9-2.1,2.1-2.1C47.1,41.4,47.8,41.9,48.1,42.7z"/>
	<path class="st6" d="M50.5,41.5h0.5v4.2h-0.5V41.5z"/>
	<path class="st6" d="M55.8,41.9h-1.7v1.4h1.5v0.5h-1.5v1.4h1.7v0.5h-2.2v-4.2h2.2V41.9z"/>
	<path class="st6" d="M59.5,45.7c-0.8,0-1.4-0.5-1.4-1.2h0.6c0,0.3,0.3,0.7,0.9,0.7c0.5,0,0.8-0.3,0.8-0.7c0-1.1-2.3-0.4-2.3-2   c0-0.7,0.6-1.2,1.4-1.2c0.8,0,1.3,0.4,1.4,1.1h-0.6c0-0.3-0.3-0.6-0.8-0.6c-0.4,0-0.8,0.2-0.8,0.7c0,1.1,2.3,0.4,2.3,2   C60.9,45.1,60.4,45.7,59.5,45.7z"/>
</g>
<script xmlns=""/></svg>